<?xml version="1.0" encoding="utf-8"?>
<!-- Generator: Adobe Illustrator 16.0.2, SVG Export Plug-In . SVG Version: 6.00 Build 0)  -->
<!DOCTYPE svg PUBLIC "-//W3C//DTD SVG 1.1//EN" "http://www.w3.org/Graphics/SVG/1.1/DTD/svg11.dtd">
<svg version="1.1" id="Layer_1" xmlns="http://www.w3.org/2000/svg" xmlns:xlink="http://www.w3.org/1999/xlink" x="0px" y="0px"
	 width="311.813px" height="311.813px" viewBox="0 0 311.813 311.813" enable-background="new 0 0 311.813 311.813"
	 xml:space="preserve">
<circle fill="none" stroke="#C9D72B" stroke-width="6" stroke-miterlimit="10" cx="156.049" cy="156.062" r="141.5"/>
<path fill="none" stroke="#C9D72B" stroke-width="6" stroke-miterlimit="10" d="M23.315,195.757
	c3.246-4.287,12.125-6.879,14.954-8.031c3.703-1.508,9.941-3.848,12.861-6.973c3.032-3.246,3.398-9.271,0.604-12.229
	c-2.583-2.736-3.021-8.209-4.798-12.203c-0.472,0.156-0.62,0.553-1.389,0.127c-0.768-0.426-1.314-4.36-1.838-6.506
	c-0.553-2.267-0.65-6.607-0.253-7.385s1.322,0.024,1.987,0.519c0.652-4.929-2.502-10.169-2.331-15.445
	c0.062-1.89,0.743-5.304,1.86-6.758c0.777-1.013,1.976-0.972,2.837-1.937c0.907-1.015,0.941-2.299,1.331-3.756
	c2.991-0.352,2.566-3.681,4.714-4.826c0.817-0.437,2.377-0.026,3.311-0.26c1.266-0.314,2.504-1.213,3.878-1.502
	c2.774-0.583,5.214-1.89,8.003-2.008c0.958-0.041,2.784,0.117,3.871,0.23c2.704,0.285,1.689,0.537,3.196,1.728
	c2.181,1.722,5.011,2.255,6.464,4.515c0.493,0.764,0.446,1.86,1.108,2.832c0.827,1.209,2.084,1.73,2.777,3.125
	c0.468,0.938,0.216,2.209,0.666,3.123c0.54,1.096,1.89,1.854,2.382,3.063c0.82,2.014-0.56,3.401,0.143,6.083
	c0.829,3.162-0.763,9.814-0.462,10.374c0.301,0.558,1.627-0.992,2.652-0.683c1.026,0.309,0.828,19.094-4.437,15.549
	c-0.193,2.622,0.147,5.286-0.668,7.771c-0.389,1.184-2.349,3.033-3.341,4.104c-0.747,0.807-2.695,12.413-0.288,14.323
	c2.408,1.908,5.114,2.814,7.604,3.205c2.67,0.418,5.136,1.438,8.155,1.865c2.65,0.377,13.265,1.523,14.778,4.992l0,0
	c4.938-7.056,11.484-4.906,14.313-6.06c3.703-1.508,9.942-3.848,12.862-6.973c3.032-3.246,3.398-9.273,0.603-12.232
	c-2.583-2.733-3.021-8.206-4.798-12.2c-0.472,0.156-0.621,0.553-1.389,0.127s-1.315-4.36-1.838-6.506
	c-0.553-2.267-0.65-6.607-0.254-7.385s1.323,0.024,1.986,0.519c0.652-4.929-2.501-10.169-2.33-15.445
	c0.062-1.89,0.742-5.304,1.859-6.758c0.778-1.013,1.977-0.972,2.837-1.937c0.908-1.015,0.943-2.299,1.332-3.757
	c2.991-0.351,2.566-3.68,4.714-4.825c0.818-0.437,2.377-0.026,3.312-0.26c1.265-0.314,2.504-1.213,3.879-1.502
	c2.773-0.583,5.214-1.89,8.002-2.008c0.959-0.041,2.785,0.117,3.871,0.23c2.705,0.285,1.688,0.537,3.196,1.728
	c2.181,1.722,5.011,2.255,6.463,4.515c0.492,0.764,0.445,1.86,1.107,2.832c0.828,1.209,2.084,1.73,2.779,3.125
	c0.467,0.938,0.215,2.209,0.664,3.123c0.541,1.096,1.891,1.854,2.383,3.063c0.82,2.014-0.562,3.401,0.143,6.083
	c0.828,3.162-0.764,9.814-0.463,10.373s1.627-0.991,2.652-0.682c1.024,0.309,0.828,19.094-4.438,15.549
	c-0.19,2.622,0.148,5.286-0.668,7.771c-0.389,1.184-2.35,3.033-3.342,4.104c-0.746,0.808-2.693,12.414-0.287,14.324
	c2.408,1.908,5.113,2.814,7.605,3.205c2.67,0.418,5.135,1.438,8.153,1.865c2.65,0.377,9.3,0.383,11.548,2.063
	c1.444,1.082,5.086,6.902,5.086,6.902c1.246-5.092,9.446-6.879,12.276-8.031c3.703-1.508,9.943-3.848,12.861-6.973
	c3.031-3.246,3.397-9.273,0.604-12.232c-2.584-2.733-3.02-8.207-4.797-12.199c-0.473,0.154-0.621,0.552-1.391,0.125
	c-0.769-0.426-1.314-4.359-1.838-6.506c-0.554-2.266-0.65-6.606-0.254-7.383c0.396-0.779,1.321,0.023,1.985,0.518
	c0.652-4.928-2.502-10.17-2.33-15.445c0.063-1.891,0.742-5.304,1.859-6.758c0.777-1.014,1.977-0.971,2.838-1.936
	c0.908-1.016,0.943-2.3,1.33-3.758c2.992-0.351,2.568-3.68,4.715-4.824c0.818-0.438,2.377-0.027,3.313-0.261
	c1.264-0.315,2.504-1.213,3.879-1.502c2.772-0.583,5.213-1.89,8.002-2.008c0.959-0.041,2.785,0.117,3.871,0.231
	c2.705,0.283,1.688,0.535,3.194,1.727c2.183,1.723,5.013,2.255,6.466,4.514c0.491,0.766,0.444,1.861,1.106,2.834
	c0.826,1.209,2.084,1.729,2.777,3.123c0.467,0.939,0.217,2.209,0.666,3.124c0.541,1.097,1.889,1.853,2.383,3.063
	c0.818,2.014-0.561,3.402,0.141,6.082c0.83,3.162-0.762,9.816-0.461,10.375c0.304,0.558,1.627-0.992,2.652-0.684
	s0.828,19.095-4.438,15.551c-0.192,2.621,0.146,5.285-0.668,7.771c-0.391,1.184-2.35,3.033-3.342,4.104
	c-0.746,0.808-2.692,12.414-0.287,14.324c2.408,1.908,5.113,2.814,7.605,3.205c2.67,0.418,5.135,1.438,8.153,1.865
	c2.648,0.377,15.617,1.408,14.777,4.992"/>
</svg>
